<svg width="836" height="230" xmlns="http://www.w3.org/2000/svg" xmlns:xlink="http://www.w3.org/1999/xlink" overflow="hidden"><defs><clipPath id="clip0"><rect x="186" y="207" width="836" height="230"/></clipPath></defs><g clip-path="url(#clip0)" transform="translate(-186 -207)"><text font-family="Calibri,Calibri_MSFontService,sans-serif" font-weight="400" font-size="80" transform="translate(555.27 336)">+<tspan font-family="Arial,Arial_MSFontService,sans-serif" font-weight="700" font-size="107" x="187.959" y="12">SP</tspan><tspan font-family="Arial,Arial_MSFontService,sans-serif" font-weight="700" font-size="107" x="324.459" y="12">A</tspan></text><path d="M325 312C325 323.598 315.598 333 304 333 292.402 333 283 323.598 283 312 283 300.402 292.402 291 304 291 315.598 291 325 300.402 325 312Z" fill="#8EE4FF" fill-rule="evenodd"/><path d="M417.5 312.5C417.5 336.248 366.908 355.5 304.5 355.5 242.092 355.5 191.5 336.248 191.5 312.5 191.5 288.752 242.092 269.5 304.5 269.5 366.908 269.5 417.5 288.752 417.5 312.5Z" stroke="#8EE4FF" stroke-width="8.78257" stroke-miterlimit="8" fill="none" fill-rule="evenodd"/><path d="M360.4 410.132C339.759 422.049 297.725 387.886 266.515 333.828 235.304 279.769 226.735 226.286 247.376 214.369 268.016 202.452 310.05 236.615 341.261 290.673 372.471 344.732 381.04 398.215 360.4 410.132Z" stroke="#8EE4FF" stroke-width="8.78257" stroke-miterlimit="8" fill="none" fill-rule="evenodd"/><path d="M247.376 410.132C226.735 398.215 235.304 344.732 266.515 290.673 297.725 236.615 339.759 202.452 360.4 214.369 381.04 226.286 372.471 279.769 341.26 333.828 310.05 387.886 268.016 422.049 247.376 410.132Z" stroke="#8EE4FF" stroke-width="8.78257" stroke-miterlimit="8" fill="none" fill-rule="evenodd"/></g></svg>